<?xml version="1.0" ?><svg viewBox="0 0 512 512" xmlns="http://www.w3.org/2000/svg"><title/><g data-name="/ OUTLINE" id="_OUTLINE"><polygon points="432 480 80 480 80 164.035 256 33.948 432 164.035 432 224 448 224 448 155.965 256 14.052 64 155.965 64 496 448 496 448 424 432 424 432 480"/><path d="M448,280v-8.00879A31.99074,31.99074,0,0,0,416.00977,240H352V216h32V152H128v64h32V424a32.03635,32.03635,0,0,0,32,32H368a32.03635,32.03635,0,0,0,32-32V408h64a32.03635,32.03635,0,0,0,32-32V280ZM160,184v16H144V168H368v32H352V184Zm32,256a16.01833,16.01833,0,0,1-16-16V200H336V424a31.80424,31.80424,0,0,0,4.29492,16ZM384,272.00879V424a16,16,0,0,1-32,0V256h36.30957A31.79882,31.79882,0,0,0,384,272.00879ZM400,392V272.00879A16.028,16.028,0,0,1,416.00293,256h.00586A15.99079,15.99079,0,0,1,432,271.99121V376a31.79171,31.79171,0,0,0,4.30518,16Zm80-16a16,16,0,0,1-32,0V296h32Z"/><polygon points="241.14 291.884 254.86 300.116 286.13 248 254.13 248 270.86 220.116 257.14 211.884 225.87 264 257.87 264 241.14 291.884"/><path d="M192,392H320V312H192Zm72-64h40v16H264Zm0,32h40v16H264Zm-56-32h40v16H208Zm0,32h40v16H208Z"/><rect height="16" width="32" x="288" y="408"/><rect height="16" width="80" x="192" y="408"/></g></svg>